<svg width="40" height="40" viewBox="0 0 40 40" fill="none" xmlns="http://www.w3.org/2000/svg">
  <rect width="40" height="40" rx="20" fill="#E67E22"/>
  <path d="M20 10C15.0377 10 11 14.0377 11 19C11 21.9587 12.5737 24.5622 15 26.0635V26.0653C15 26.0653 15.5248 23.1522 16.4487 22.8012C17.1895 22.5203 19.429 22 20 22C20.571 22 22.8105 22.5203 23.5513 22.8012C24.4752 23.1522 25 26.0653 25 26.0653V26.0635C27.4263 24.5622 29 21.9587 29 19C29 14.0377 24.9623 10 20 10ZM20 21C17.794 21 16 19.206 16 17C16 14.794 17.794 13 20 13C22.206 13 24 14.794 24 17C24 19.206 22.206 21 20 21Z" fill="white"/>
</svg> 